HIERARCHY
ROOT Hips
{
	OFFSET 0.00000 0.00000 0.00000
	CHANNELS 6 Xposition Yposition Zposition Zrotation Yrotation Xrotation 
	JOINT LHipJoint
	{
		OFFSET 0 0 0
		CHANNELS 3 Zrotation Yrotation Xrotation
		JOINT LeftHip
		{
			OFFSET 1.46561 -1.72757 0.83774
			CHANNELS 3 Zrotation Yrotation Xrotation
			JOINT LeftKnee
			{
				OFFSET 2.48915 -6.83890 0.00000
				CHANNELS 3 Zrotation Yrotation Xrotation
				JOINT LeftAnkle
				{
					OFFSET 2.60555 -7.15868 0.00000
					CHANNELS 3 Zrotation Yrotation Xrotation
					JOINT LeftToe
					{
						OFFSET 0.19248 -0.52884 2.26738
						CHANNELS 3 Zrotation Yrotation Xrotation
						End Site
						{
							OFFSET 0.00000 -0.00000 1.17015
						}
					}
				}
			}
		}
	}
	JOINT RHipJoint
	{
		OFFSET 0 0 0
		CHANNELS 3 Zrotation Yrotation Xrotation
		JOINT RightHip
		{
			OFFSET -1.46918 -1.72757 0.83774
			CHANNELS 3 Zrotation Yrotation Xrotation
			JOINT RightKnee
			{
				OFFSET -2.49034 -6.84216 0.00000
				CHANNELS 3 Zrotation Yrotation Xrotation
				JOINT RightAnkle
				{
					OFFSET -2.65971 -7.30750 0.00000
					CHANNELS 3 Zrotation Yrotation Xrotation
					JOINT RightToe
					{
						OFFSET -0.19227 -0.52827 2.30785
						CHANNELS 3 Zrotation Yrotation Xrotation
						End Site
						{
							OFFSET -0.00000 -0.00000 1.18972
						}
					}
				}
			}
		}
	}
	JOINT lowerback
	{
		OFFSET 0 0 0
		CHANNELS 3 Zrotation Yrotation Xrotation
		JOINT Chest
		{
			OFFSET 0.02432 2.19909 -0.28000
			CHANNELS 3 Zrotation Yrotation Xrotation
			JOINT Chest2
			{
				OFFSET 0.03714 2.21816 -0.15261
				CHANNELS 3 Zrotation Yrotation Xrotation
				JOINT lowerneck
				{
					OFFSET 0 0 0
					CHANNELS 3 Zrotation Yrotation Xrotation
					JOINT Neck
					{
						OFFSET -0.01896 1.56165 0.21681
						CHANNELS 3 Zrotation Yrotation Xrotation
						JOINT Head
						{
							OFFSET 0.02744 1.56009 0.06764
							CHANNELS 3 Zrotation Yrotation Xrotation
							End Site
							{
								OFFSET 0.01212 1.60574 0.00298
							}
						}
					}
				}
				JOINT LeftCollar
				{
					OFFSET 0 0 0
					CHANNELS 3 Zrotation Yrotation Xrotation
					JOINT LeftShoulder
					{
						OFFSET 3.05595 1.48048 -0.60794
CHANNELS 3 Zrotation Xrotation Yrotation
						JOINT LeftElbow
						{
OFFSET 0 -5.206070 -0.000000
CHANNELS 3 Zrotation Xrotation Yrotation
							JOINT LeftWrist
							{
OFFSET 0 -3.399610 0.000000
CHANNELS 3 Zrotation Xrotation Yrotation
								JOINT lhand
								{
									OFFSET 0 0 0
CHANNELS 3 Zrotation Xrotation Yrotation
									JOINT LFingers
									{
OFFSET 0 -0.519690 0.000000
CHANNELS 3 Zrotation Xrotation Yrotation
										End Site
										{
OFFSET 0 -0.418990 0.000000
										}
									}
								}
								JOINT LThumb
								{
OFFSET 0 0.000000 0.000000
CHANNELS 3 Zrotation Xrotation Yrotation
									End Site
									{
OFFSET 0 -0.425390 0.425390
									}
								}
							}
						}
					}
				}
				JOINT RightCollar
				{
					OFFSET 0 0 0
					CHANNELS 3 Zrotation Yrotation Xrotation
					JOINT RightShoulder
					{
						OFFSET -2.99052 1.57608 -0.69102
CHANNELS 3 Zrotation Xrotation Yrotation
						JOINT RightElbow
						{
OFFSET 0 -5.322140 0.000000
CHANNELS 3 Zrotation Xrotation Yrotation
							JOINT RightWrist
							{
OFFSET 0 -3.512080 0.000000
CHANNELS 3 Zrotation Xrotation Yrotation
								JOINT rhand
								{
									OFFSET 0 0 0
CHANNELS 3 Zrotation Xrotation Yrotation
									JOINT RFingers
									{
OFFSET 0 -0.586680 0.000000
CHANNELS 3 Zrotation Xrotation Yrotation
										End Site
										{
OFFSET 0 -0.473000 0.000000
										}
									}
								}
								JOINT RThumb
								{
OFFSET 0 0.000000 0.000000
CHANNELS 3 Zrotation Xrotation Yrotation
									End Site
									{
OFFSET 0 -0.480220 0.480220
									}
								}
							}
						}
					}
				}
			}
		}
	}
}
MOTION
Frames: 8
Frame Time: 0.008333333333333333
-0.002000 17.598300 -14.274600 -1.434000 -0.172300 7.703300 0.000000 0.000000 0.000000 -16.876500 1.025800 -16.723700 1.149700 6.808200 19.148300 0.330500 0.714600 -11.142700 0.000000 0.018900 0.051900 0.000000 0.000000 0.000000 19.746900 2.212600 -16.953500 -1.433800 -7.570800 21.417900 -0.488900 2.471400 -12.589900 -0.445900 -4.284300 11.877900 0.320700 -0.519000 0.583800 1.829200 -0.784800 5.545100 1.683500 -0.424800 5.427400 -2.335600 0.413600 -11.904300 0.760400 0.954300 34.611000 0.856900 0.207400 13.677900 0.000000 0.000000 0.000000 1.645900 -13.130800 -30.932200 9.079300 -15.286700 1.220900 25.022400 -4.041100 2.446100 0.000000 0.000000 0.000000 -7.125000 0.000000 0.000000 -1.204100 27.280100 -0.518400 0.000000 0.000000 0.000000 -3.108200 -11.625400 9.220800 -12.053000 -19.884000 -2.120300 -21.321900 41.665700 25.306300 0.000000 0.000000 0.000000 7.125000 0.000000 -0.000000 9.176100 56.655200 -2.637000
0.000004 17.597951 -14.275559 -1.439316 -0.176396 7.695980 0.000000 0.000000 0.000000 -16.877546 1.021268 -16.728406 1.151704 6.813952 19.165468 0.330239 0.728369 -11.144007 0.000000 0.010883 0.029939 0.000000 0.000000 0.000000 19.746029 2.224626 -16.944873 -1.433887 -7.571236 21.419033 -0.489249 2.450049 -12.597569 -0.443286 -4.271925 11.843042 0.315820 -0.517780 0.580924 1.825627 -0.782796 5.541178 1.682541 -0.423929 5.424873 -2.291592 0.442271 -11.939681 0.740705 0.992731 34.608124 0.847140 0.227182 13.684000 0.000000 0.000000 0.000000 1.673002 -13.148752 -30.877386 9.064572 -15.263171 1.217066 25.123227 -4.114738 2.653941 0.000000 0.000000 0.000000 -7.125000 0.000000 0.000000 -1.127674 27.048555 -0.491559 0.000000 0.000000 0.000000 -3.071163 -11.610760 9.167119 -12.048294 -19.877028 -2.118644 -21.368523 41.761473 25.213229 0.000000 0.000000 0.000000 7.125000 0.000000 0.000000 9.084510 56.569972 -2.591684
0.002009 17.597380 -14.276591 -1.449609 -0.180120 7.693860 0.000000 0.000000 0.000000 -16.870642 1.005890 -16.727391 1.152594 6.816509 19.172977 0.330646 0.735897 -11.153783 0.000000 0.016906 0.046461 0.000000 0.000000 0.000000 19.750283 2.233903 -16.939811 -1.432860 -7.568626 21.411251 -0.489671 2.444820 -12.604197 -0.444460 -4.277678 11.859147 0.312203 -0.518566 0.585477 1.826140 -0.783466 5.523439 1.685149 -0.424320 5.403550 -2.264299 0.462621 -11.948986 0.723536 1.021504 34.596259 0.839682 0.240946 13.680517 0.000000 0.000000 0.000000 1.696613 -13.137136 -30.817742 9.051776 -15.242836 1.213677 25.137431 -4.068248 2.622567 0.000000 0.000000 0.000000 -7.125000 0.000000 0.000000 -1.116623 27.082822 -0.485891 0.000000 0.000000 0.000000 -3.042670 -11.574724 9.167818 -12.047451 -19.875703 -2.118400 -21.406231 41.733774 25.132119 0.000000 0.000000 0.000000 7.125000 0.000000 0.000000 9.008076 56.495145 -2.553278
0.004505 17.597323 -14.276961 -1.461378 -0.190661 7.681889 0.000000 0.000000 0.000000 -16.866787 1.007558 -16.716786 1.153476 6.819066 19.180414 0.330739 0.749350 -11.161401 0.000000 0.007912 0.021783 0.000000 0.000000 0.000000 19.753520 2.235456 -16.922957 -1.431763 -7.565795 21.402848 -0.488756 2.448585 -12.591478 -0.444631 -4.278518 11.861524 0.309541 -0.517057 0.591746 1.830248 -0.781281 5.515165 1.691015 -0.423456 5.391262 -2.264779 0.473852 -11.958325 0.724129 1.038040 34.577863 0.842331 0.248325 13.674085 0.000000 0.000000 0.000000 1.712370 -13.131401 -30.766602 9.046626 -15.234665 1.212331 25.156675 -4.041642 2.631634 0.000000 0.000000 0.000000 -7.125000 0.000000 0.000000 -1.101955 27.072280 -0.479771 0.000000 0.000000 0.000000 -3.018665 -11.572768 9.131604 -12.036280 -19.859012 -2.114591 -21.389008 41.705477 25.169068 0.000000 0.000000 0.000000 7.125000 0.000000 0.000000 9.042944 56.529322 -2.570745
0.007109 17.597254 -14.277389 -1.473501 -0.200681 7.671248 0.000000 0.000000 0.000000 -16.863374 1.009274 -16.708557 1.154337 6.821612 19.187838 0.330700 0.763984 -11.166529 0.000000 -0.002604 -0.007085 0.000000 0.000000 0.000000 19.756640 2.236063 -16.908293 -1.430717 -7.563094 21.394733 -0.487663 2.451643 -12.576325 -0.443623 -4.273562 11.847518 0.308549 -0.515803 0.595280 1.834738 -0.779554 5.508259 1.696286 -0.422703 5.382027 -2.268288 0.483764 -11.966846 0.725414 1.053213 34.558307 0.845591 0.254827 13.666968 0.000000 0.000000 0.000000 1.726064 -13.129443 -30.714317 9.040745 -15.225378 1.210788 25.177693 -4.022388 2.659156 0.000000 0.000000 0.000000 -7.125000 0.000000 0.000000 -1.085996 27.041424 -0.473628 0.000000 0.000000 0.000000 -2.994852 -11.571564 9.088685 -12.025899 -19.843450 -2.111034 -21.367468 41.696946 25.205200 0.000000 0.000000 0.000000 7.125000 0.000000 0.000000 9.081998 56.561677 -2.589037
0.009743 17.597064 -14.278122 -1.485880 -0.207537 7.665735 0.000000 0.000000 0.000000 -16.858878 1.004528 -16.705535 1.155122 6.823786 19.194329 0.330664 0.776623 -11.171029 0.000000 -0.008065 -0.022095 0.000000 0.000000 0.000000 19.760301 2.236900 -16.899992 -1.429493 -7.559999 21.385434 -0.486807 2.452972 -12.564462 -0.442050 -4.265999 11.826175 0.309422 -0.515950 0.595857 1.838893 -0.779829 5.498713 1.700065 -0.422814 5.371742 -2.267150 0.493965 -11.971350 0.720349 1.069745 34.538340 0.845650 0.261658 13.658842 0.000000 0.000000 0.000000 1.739066 -13.127185 -30.655913 9.031820 -15.211205 1.208435 25.188465 -3.989887 2.666964 0.000000 0.000000 0.000000 -7.125000 0.000000 0.000000 -1.077757 27.032608 -0.470264 0.000000 0.000000 0.000000 -2.970975 -11.557869 9.057225 -12.020478 -19.835321 -2.109193 -21.358127 41.698065 25.203614 0.000000 0.000000 0.000000 7.125000 0.000000 0.000000 9.091166 56.558043 -2.590893
0.012555 17.596954 -14.278929 -1.498448 -0.213289 7.661217 0.000000 0.000000 0.000000 -16.854685 0.999222 -16.704097 1.155997 6.826069 19.201239 0.330646 0.787839 -11.176192 0.000000 -0.012263 -0.033630 0.000000 0.000000 0.000000 19.763663 2.235222 -16.893554 -1.428194 -7.556774 21.375776 -0.485917 2.456044 -12.551870 -0.440265 -4.257619 11.802622 0.312089 -0.516697 0.595074 1.843375 -0.781035 5.489796 1.703135 -0.423383 5.362902 -2.267737 0.501824 -11.972586 0.712472 1.084162 34.516019 0.844491 0.267021 13.648995 0.000000 0.000000 0.000000 1.749364 -13.126380 -30.593080 9.022501 -15.196300 1.205991 25.190848 -3.947512 2.663316 0.000000 0.000000 0.000000 -7.125000 0.000000 0.000000 -1.075906 27.036567 -0.469346 0.000000 0.000000 0.000000 -2.948253 -11.543152 9.027930 -12.016491 -19.829425 -2.107871 -21.346301 41.703299 25.204114 0.000000 0.000000 0.000000 7.125000 0.000000 0.000000 9.103905 56.556065 -2.594132
0.015451 17.596780 -14.279830 -1.510852 -0.217500 7.657620 0.000000 0.000000 0.000000 -16.851179 0.993119 -16.705641 1.157150 6.829441 19.211102 0.330830 0.796961 -11.182661 0.000000 -0.014300 -0.039259 0.000000 0.000000 0.000000 19.766190 2.232289 -16.890620 -1.427430 -7.554810 21.369749 -0.485240 2.460241 -12.542189 -0.438710 -4.250149 11.781528 0.316821 -0.517970 0.592919 1.847531 -0.782891 5.482019 1.704720 -0.424170 5.356009 -2.268120 0.507861 -11.972320 0.700667 1.096972 34.491535 0.841509 0.271221 13.637908 0.000000 0.000000 0.000000 1.757741 -13.128721 -30.525806 9.012178 -15.179857 1.203279 25.189499 -3.898889 2.655086 0.000000 0.000000 0.000000 -7.125000 0.000000 0.000000 -1.076961 27.045664 -0.469590 0.000000 0.000000 0.000000 -2.925766 -11.527677 9.000226 -12.014220 -19.825970 -2.107140 -21.337220 41.716482 25.203759 0.000000 0.000000 0.000000 7.125000 0.000000 0.000000 9.113349 56.553849 -2.596340
